<svg xmlns="http://www.w3.org/2000/svg" viewBox="0 0 320 200" fill="none">
  <defs>
    <linearGradient id="g1" x1="0" y1="1" x2="0" y2="0">
      <stop offset="0%" stop-color="#4dabf7" stop-opacity="0"/>
      <stop offset="100%" stop-color="#4dabf7" stop-opacity="0.2"/>
    </linearGradient>
  </defs>
  <rect width="320" height="200" fill="#111820" rx="12"/>
  <path d="M40 160 L80 120 L120 135 L160 90 L200 110 L240 70 L280 95" stroke="#4dabf7" stroke-width="2" fill="none" opacity="0.8"/>
  <path d="M40 160 L80 120 L120 135 L160 90 L200 110 L240 70 L280 95 L280 160 L40 160 Z" fill="url(#g1)"/>
  <rect x="50" y="40" width="220" height="120" rx="4" stroke="rgba(255,255,255,0.08)" stroke-width="1" fill="none"/>
  <circle cx="80" cy="120" r="4" fill="#4dabf7"/>
  <circle cx="160" cy="90" r="4" fill="#51cf66"/>
  <circle cx="240" cy="70" r="4" fill="#74c0fc"/>
  <path d="M200 30 L210 45 L195 45 Z" fill="#4dabf7" opacity="0.5"/>
  <text x="215" y="42" fill="#8b949e" font-family="sans-serif" font-size="10">KZ</text>
</svg>
